<mxfile host="65bd71144e">
    <diagram id="Cn-47KStidgmGwkH_h2v" name="Page-1">
        <mxGraphModel dx="471" dy="857" grid="1" gridSize="10" guides="1" tooltips="1" connect="1" arrows="1" fold="1" page="1" pageScale="1" pageWidth="850" pageHeight="1100" math="0" shadow="0">
            <root>
                <mxCell id="0"/>
                <mxCell id="1" parent="0"/>
                <mxCell id="14" value="" style="rounded=0;whiteSpace=wrap;html=1;fillColor=#b1ddf0;strokeColor=#10739e;" vertex="1" parent="1">
                    <mxGeometry x="65" y="30" width="360" height="330" as="geometry"/>
                </mxCell>
                <mxCell id="4" value="VNET10" style="edgeStyle=none;html=1;endArrow=none;endFill=0;strokeColor=#000000;" parent="1" source="2" target="3" edge="1">
                    <mxGeometry relative="1" as="geometry"/>
                </mxCell>
                <mxCell id="6" value="G1" style="edgeStyle=none;html=1;endArrow=none;endFill=0;strokeColor=#000000;" parent="1" source="2" target="5" edge="1">
                    <mxGeometry relative="1" as="geometry"/>
                </mxCell>
                <mxCell id="2" value="" style="outlineConnect=0;dashed=0;verticalLabelPosition=bottom;verticalAlign=top;align=center;html=1;shape=mxgraph.aws3.router;fillColor=#F58534;gradientColor=none;" parent="1" vertex="1">
                    <mxGeometry x="100" y="270" width="69" height="72" as="geometry"/>
                </mxCell>
                <mxCell id="7" value="G1" style="edgeStyle=none;html=1;endArrow=none;endFill=0;strokeColor=#000000;" parent="1" source="3" target="5" edge="1">
                    <mxGeometry relative="1" as="geometry"/>
                </mxCell>
                <mxCell id="3" value="" style="outlineConnect=0;dashed=0;verticalLabelPosition=bottom;verticalAlign=top;align=center;html=1;shape=mxgraph.aws3.router;fillColor=#F58534;gradientColor=none;" parent="1" vertex="1">
                    <mxGeometry x="330" y="270" width="69" height="72" as="geometry"/>
                </mxCell>
                <mxCell id="5" value="MGMT NETWORK" style="whiteSpace=wrap;html=1;verticalAlign=middle;fillColor=#6a00ff;dashed=0;fontColor=#ffffff;strokeColor=#3700CC;align=center;" parent="1" vertex="1">
                    <mxGeometry x="180" y="150" width="140" height="30" as="geometry"/>
                </mxCell>
                <mxCell id="9" value="" style="edgeStyle=none;html=1;endArrow=none;endFill=0;" parent="1" source="8" target="5" edge="1">
                    <mxGeometry relative="1" as="geometry"/>
                </mxCell>
                <mxCell id="8" value="&lt;b style=&quot;font-size: 15px;&quot;&gt;&lt;font style=&quot;font-size: 15px;&quot;&gt;ANSIBLE&lt;/font&gt;&lt;/b&gt;" style="rounded=1;whiteSpace=wrap;html=1;strokeWidth=2;fillWeight=4;hachureGap=8;hachureAngle=45;fillColor=none;sketch=1;gradientColor=none;fontSize=15;strokeColor=#000000;fontColor=#000000;" parent="1" vertex="1">
                    <mxGeometry x="207.5" y="60" width="85" height="40" as="geometry"/>
                </mxCell>
                <mxCell id="12" value="G2" style="text;html=1;align=center;verticalAlign=middle;resizable=0;points=[];autosize=1;strokeColor=none;fillColor=none;fontSize=15;fontColor=#000000;" parent="1" vertex="1">
                    <mxGeometry x="160" y="322" width="40" height="20" as="geometry"/>
                </mxCell>
                <mxCell id="13" value="G2" style="text;html=1;align=center;verticalAlign=middle;resizable=0;points=[];autosize=1;strokeColor=none;fillColor=none;fontSize=15;fontColor=#000000;" parent="1" vertex="1">
                    <mxGeometry x="290" y="322" width="40" height="20" as="geometry"/>
                </mxCell>
            </root>
        </mxGraphModel>
    </diagram>
</mxfile>